<svg xmlns="http://www.w3.org/2000/svg" width="409" height="22.3" xmlns:v="https://vecta.io/nano"><path d="M0 .5h14.4v4.3H4.7v4h9.2v4.3H4.7v4.3H15v4.3H0V.5zm30.6 5.6c-.5-.6-1-1-1.7-1.3s-1.5-.5-2.3-.5-1.7.2-2.4.5-1.4.8-2 1.4-1 1.4-1.3 2.2c-.3.9-.5 1.8-.5 2.7s.1 1.9.5 2.7c.3.8.7 1.5 1.3 2.2.5.6 1.2 1.1 1.9 1.4s1.5.5 2.4.5 1.8-.2 2.5-.6 1.4-1 1.8-1.7l3.9 2.9c-.9 1.2-2 2.2-3.4 2.8-1.3.7-2.8 1-4.3 1-1.6 0-3.1-.2-4.6-.8-1.4-.5-2.6-1.2-3.6-2.2s-1.8-2.2-2.4-3.5c-.6-1.5-.9-3-.9-4.6s.3-3.2.9-4.6S17.8 4 18.8 3s2.3-1.7 3.6-2.2C23.9.2 25.5 0 27 0c.6 0 1.3.1 1.9.2.7.1 1.3.3 1.9.5a6.37 6.37 0 0 1 1.8 1c.6.4 1.1.9 1.6 1.5l-3.6 2.9zM36.5.5h4.7v16.9h8.7v4.3H36.5V.5zm14.8 0H56v21.2h-4.7V.5zm8 0h7.9a16.28 16.28 0 0 1 3.1.3c.9.2 1.8.5 2.6 1a5.51 5.51 0 0 1 1.7 2c.5 1 .7 2.1.6 3.1a8.15 8.15 0 0 1-.6 3.1c-.4.8-.9 1.5-1.7 2-.7.5-1.6.9-2.5 1.1a16.28 16.28 0 0 1-3.1.3h-3.4v8.3h-4.7V.5zm4.6 9H67c.4 0 .8 0 1.2-.1s.8-.2 1.1-.4.6-.5.8-.8c.2-.4.3-.8.3-1.2 0-.5-.1-.9-.4-1.3-.3-.3-.6-.6-1-.8a3.08 3.08 0 0 0-1.3-.3c-.5 0-.9-.1-1.4-.1h-2.4v5zm23.8-3.8c-.4-.5-.9-.9-1.5-1.1s-1.2-.3-1.8-.3c-.4 0-.7 0-1.1.1s-.7.2-1 .4-.6.4-.8.7a1.93 1.93 0 0 0-.3 1c0 .6.2 1.1.7 1.5.6.4 1.2.7 1.8.9l2.4.7c.8.2 1.6.6 2.3 1s1.4 1 1.8 1.8c.5.9.8 1.9.7 3 0 1.1-.2 2.1-.7 3.1-.4.9-1 1.6-1.8 2.2s-1.7 1-2.6 1.3c-1 .3-2.1.4-3.1.4-1.3 0-2.6-.2-3.8-.6s-2.3-1.1-3.3-2l3.3-3.7a6.55 6.55 0 0 0 1.8 1.5c.7.3 1.5.5 2.3.5.4 0 .8 0 1.2-.1s.7-.2 1.1-.4c.3-.2.6-.4.8-.7a1.69 1.69 0 0 0 .3-1c0-.6-.3-1.2-.7-1.5-.6-.4-1.2-.7-1.8-.9-.7-.3-1.5-.5-2.4-.8-.8-.3-1.6-.6-2.4-1.1-.7-.4-1.4-1-1.8-1.7-.5-.9-.8-1.8-.7-2.8 0-1 .2-2.1.7-3 .4-.8 1-1.6 1.8-2.2s1.7-1 2.6-1.3c1-.3 2-.4 3-.4 1.2 0 2.4.2 3.5.5s2.2.9 3 1.7l-3.5 3.3zM92.6.5H107v4.3h-9.8v4h9.2v4.3h-9.2v4.3h10.3v4.3h-15V.5z" fill="#003057"/><path d="M138.1 13.6a10.3 10.3 0 0 1-.6 3.5c-.4 1-.9 2-1.7 2.8s-1.7 1.4-2.8 1.8c-1.2.5-2.6.7-3.9.7s-2.7-.2-3.9-.7c-1.1-.4-2-1-2.8-1.8s-1.3-1.7-1.7-2.8a10.3 10.3 0 0 1-.6-3.5V.5h4.7v12.9c0 .6.1 1.2.3 1.8.2.5.5 1 .9 1.5a5.02 5.02 0 0 0 1.4 1c.5.2 1.1.4 1.7.3.6 0 1.2-.1 1.7-.3s1-.6 1.4-1 .7-.9.9-1.5.3-1.2.3-1.8V.5h4.7v13.1zm11-2.1c-.6-.8-1.6-1.3-2.6-1.2-.4 0-.8.1-1.1.3-.4.2-.6.5-.5.9 0 .4.2.7.6.8.5.2.9.3 1.4.4l1.8.4c.6.1 1.3.4 1.8.7.6.3 1 .8 1.4 1.3.4.7.6 1.4.6 2.2s-.2 1.6-.6 2.3a4.63 4.63 0 0 1-1.6 1.5c-.7.4-1.4.6-2.2.8l-2.4.2c-1 0-2.1-.1-3.1-.4s-1.9-.8-2.6-1.5l2.7-3c.4.5.9.9 1.4 1.2.6.3 1.2.4 1.8.4.5 0 1-.1 1.4-.2s.6-.4.6-.8-.2-.7-.6-.9-.9-.4-1.4-.5l-1.8-.4c-.6-.1-1.3-.4-1.8-.7-.6-.3-1.1-.7-1.4-1.3-.4-.7-.6-1.4-.6-2.2s.2-1.5.5-2.2c.3-.6.8-1.1 1.4-1.5s1.3-.7 2-.9a8.33 8.33 0 0 1 2.2-.3c1 0 2 .1 2.9.4a5.79 5.79 0 0 1 2.5 1.5l-2.7 2.7zm18.4 7.8c-.7.9-1.7 1.7-2.7 2.1-1.1.5-2.2.7-3.4.8-1.1 0-2.1-.2-3.2-.5-1-.3-1.8-.9-2.6-1.5-.7-.7-1.3-1.5-1.7-2.4-.4-1-.6-2.1-.6-3.2s.2-2.2.6-3.2c.4-.9 1-1.7 1.7-2.4s1.6-1.2 2.6-1.5c1-.4 2.1-.5 3.2-.5 1 0 1.9.2 2.8.5.8.3 1.6.9 2.2 1.5.6.7 1.1 1.5 1.4 2.4.3 1 .5 2.1.5 3.1v1.4h-10.4c.1.8.6 1.5 1.2 2.1.6.5 1.4.8 2.2.8.7 0 1.3-.2 1.9-.5a4.04 4.04 0 0 0 1.3-1.3l3 2.3zm-3.8-6.5c0-.7-.2-1.4-.8-1.9-.5-.5-1.3-.8-2-.8-.5 0-.9.1-1.3.2s-.7.4-1 .6-.5.5-.6.9l-.3 1h6zm6.2-5.6h4.5v2.3h.1a5.51 5.51 0 0 1 1.7-2c.7-.5 1.6-.7 2.5-.7h.8c.2 0 .5.1.7.1V11c-.3-.1-.6-.2-.9-.2-.3-.1-.6-.1-1-.1-.7 0-1.4.1-2 .4-.5.2-.9.6-1.2 1-.3.5-.5 1-.5 1.5-.1.7-.1 1.3-.1 2v6.1H170l-.1-14.5zM198.6.5h3.9l9.2 21.2h-5.3l-1.8-4.5h-8.2l-1.8 4.5h-5.2L198.6.5zm1.8 6.2l-2.6 6.6h5.2l-2.6-6.6zm21.7 5.2c-.2-.3-.6-.6-.9-.8-.4-.2-.8-.3-1.3-.3-1-.1-2 .3-2.7 1-.6.7-1 1.7-.9 2.7 0 1 .3 1.9.9 2.7.7.7 1.7 1.1 2.7 1 .5 0 .9-.1 1.3-.3.3-.2.7-.5.9-.8l3 3.1a5.79 5.79 0 0 1-2.5 1.5c-.9.3-1.8.4-2.7.4-1.1 0-2.1-.2-3.2-.5-1-.3-1.8-.9-2.6-1.5-.7-.7-1.3-1.5-1.7-2.4-.4-1-.6-2.1-.6-3.2s.2-2.2.6-3.2c.4-.9 1-1.7 1.7-2.4s1.6-1.2 2.6-1.5c1-.4 2.1-.5 3.2-.5.9 0 1.8.2 2.7.4.9.3 1.8.8 2.5 1.5l-3 3.1zm13.5 0c-.2-.3-.6-.6-.9-.8-.4-.2-.8-.3-1.3-.3-1-.1-2 .3-2.7 1-.6.7-1 1.7-.9 2.7 0 1 .3 1.9.9 2.7.7.7 1.7 1.1 2.7 1 .5 0 .9-.1 1.3-.3.3-.2.7-.5.9-.8l3 3.1a5.79 5.79 0 0 1-2.5 1.5c-.9.3-1.8.4-2.7.4-1.1 0-2.1-.2-3.2-.5-1-.3-1.8-.9-2.6-1.5-.7-.7-1.3-1.5-1.7-2.4-.4-1-.6-2.1-.6-3.2s.2-2.2.6-3.2c.4-.9 1-1.7 1.7-2.4s1.6-1.2 2.6-1.5c1-.4 2.1-.5 3.2-.5.9 0 1.8.2 2.7.4.9.3 1.8.8 2.5 1.5l-3 3.1zm17.4 7.4c-.7.9-1.7 1.7-2.7 2.1-1.1.5-2.2.7-3.4.8-1.1 0-2.1-.2-3.2-.5-1-.3-1.8-.9-2.6-1.5-.7-.7-1.3-1.5-1.7-2.4-.4-1-.6-2.1-.6-3.2s.2-2.2.6-3.2c.4-.9 1-1.7 1.7-2.4s1.6-1.2 2.6-1.5c1-.4 2.1-.5 3.2-.5 1 0 1.9.2 2.8.5.8.3 1.6.9 2.2 1.5.6.7 1.1 1.5 1.4 2.4.3 1 .5 2.1.5 3.2V16h-10.4c.1.8.6 1.5 1.2 2.1.6.5 1.4.8 2.2.8.7 0 1.3-.2 1.9-.5a4.04 4.04 0 0 0 1.3-1.3l3 2.2zm-3.8-6.5c0-.7-.2-1.4-.8-1.9-.5-.5-1.3-.8-2-.8-.5 0-.9.1-1.3.2s-.7.4-1 .6-.5.5-.6.9l-.3 1h6zm14.4-1.3c-.6-.8-1.6-1.3-2.6-1.2-.4 0-.8.1-1.1.3-.4.2-.6.5-.5.9 0 .4.2.7.6.8.5.2.9.3 1.4.4l1.8.4c.6.1 1.3.4 1.8.7.6.3 1 .8 1.4 1.3.4.7.6 1.4.6 2.2s-.2 1.6-.6 2.3a4.63 4.63 0 0 1-1.6 1.5c-.7.4-1.4.6-2.2.8l-2.4.2c-1 0-2.1-.1-3.1-.4s-1.9-.8-2.6-1.5l2.7-3c.4.5.9.9 1.4 1.2.6.3 1.2.4 1.8.4.5 0 1-.1 1.4-.2s.6-.4.6-.8-.2-.7-.6-.9-.9-.4-1.4-.5l-1.8-.4c-.6-.1-1.3-.4-1.8-.7-.6-.3-1.1-.7-1.4-1.3-.4-.7-.6-1.4-.6-2.2s.2-1.5.5-2.2c.3-.6.8-1.1 1.4-1.5s1.3-.7 2-.9a8.33 8.33 0 0 1 2.2-.3c1 0 2 .1 2.9.4a5.79 5.79 0 0 1 2.5 1.5l-2.7 2.7zm12.9 0c-.6-.8-1.6-1.3-2.6-1.2-.4 0-.8.1-1.1.3-.4.2-.6.5-.5.9 0 .4.2.7.6.8.5.2.9.3 1.4.4l1.8.4c.6.1 1.3.4 1.8.7.6.3 1 .8 1.4 1.3.4.7.6 1.4.6 2.2s-.2 1.6-.6 2.3a4.63 4.63 0 0 1-1.6 1.5c-.7.4-1.4.6-2.2.8l-2.4.2c-1 0-2.1-.1-3.1-.4s-1.9-.8-2.6-1.5l2.7-3c.4.5.9.9 1.4 1.2.6.3 1.2.4 1.8.4.5 0 1-.1 1.4-.2s.6-.4.6-.8-.2-.7-.6-.9-.9-.4-1.4-.5l-1.8-.4c-.6-.1-1.3-.4-1.8-.7-.6-.3-1.1-.7-1.4-1.3-.4-.7-.6-1.4-.6-2.2s.2-1.5.5-2.2c.3-.6.8-1.1 1.4-1.5s1.3-.7 2-.9a8.33 8.33 0 0 1 2.2-.3c1 0 2 .1 2.9.4a5.79 5.79 0 0 1 2.5 1.5l-2.7 2.7zm15.1-11h8.2a16.28 16.28 0 0 1 3.1.3c.9.2 1.8.5 2.5 1a5.51 5.51 0 0 1 1.7 2c.5 1 .7 2 .6 3.1 0 1.4-.4 2.7-1.2 3.8s-2.1 1.8-3.4 2l5.4 9h-5.6l-4.4-8.5h-2.3v8.5h-4.7V.5zm4.7 8.8h2.8 1.3a3.08 3.08 0 0 0 1.3-.3c.4-.1.7-.4.9-.7.3-.4.4-.9.4-1.4s-.1-.9-.3-1.3c-.2-.3-.5-.6-.8-.7-.4-.2-.8-.3-1.2-.3-.4-.1-.9-.1-1.3-.1h-3.1v4.8zm27 10c-.7.9-1.7 1.7-2.7 2.1-1.1.5-2.2.7-3.4.8-1.1 0-2.1-.2-3.2-.5-1-.3-1.8-.9-2.6-1.5-.7-.7-1.3-1.5-1.7-2.4-.4-1-.6-2.1-.6-3.2s.2-2.2.6-3.2c.4-.9 1-1.7 1.7-2.4s1.6-1.2 2.6-1.5c1-.4 2.1-.5 3.2-.5 1 0 1.9.2 2.8.5.8.3 1.6.9 2.2 1.5.6.7 1.1 1.5 1.4 2.4.3 1 .5 2.1.5 3.1v1.4h-10.4c.1.8.6 1.5 1.2 2.1.6.5 1.4.8 2.2.8.7 0 1.3-.2 1.9-.5a4.04 4.04 0 0 0 1.3-1.3l3 2.3zm-3.8-6.5c0-.7-.2-1.4-.8-1.9-.5-.5-1.3-.8-2-.8-.5 0-.9.1-1.3.2s-.7.4-1 .6-.5.5-.6.9l-.3 1h6zm4.7-5.6h4.9l3.7 9.9h.1l3.4-9.9h4.5L335 21.8h-4.8l-6-14.6zm17.3 0h4.5v14.6h-4.5V7.2zm-.4-4.6c0-.7.3-1.4.8-1.8.5-.5 1.2-.8 1.8-.8.7 0 1.4.3 1.8.8.5.5.8 1.2.8 1.8 0 .7-.3 1.4-.8 1.8-.5.5-1.2.8-1.8.8-.7 0-1.4-.3-1.8-.8-.5-.4-.8-1.1-.8-1.8h0zM362 19.3c-.7.9-1.7 1.7-2.7 2.1-1.1.5-2.2.7-3.4.8-1.1 0-2.1-.2-3.2-.5-1-.3-1.8-.9-2.6-1.5-.7-.7-1.3-1.5-1.7-2.4-.4-1-.6-2.1-.6-3.2s.2-2.2.6-3.2c.4-.9 1-1.7 1.7-2.4s1.6-1.2 2.6-1.5c1-.4 2.1-.5 3.2-.5 1 0 1.9.2 2.8.5.8.3 1.6.9 2.2 1.5.6.7 1.1 1.5 1.4 2.4.3 1 .5 2.1.5 3.1v1.4h-10.4c.1.8.6 1.5 1.2 2.1.6.5 1.4.8 2.2.8.7 0 1.3-.2 1.9-.5A4.04 4.04 0 0 0 359 17l3 2.3zm-3.8-6.5c0-.7-.2-1.4-.8-1.9-.5-.5-1.3-.8-2-.8-.5 0-.9.1-1.3.2s-.7.4-1 .6-.5.5-.6.9l-.3 1h6zm4.5-5.6h4.8l3 9.1h.1l2.5-9.1h4.9l2.7 9.1h.1l2.7-9.1h4.6l-5.2 14.6h-4.4l-3-9.7h-.1l-2.7 9.7H368l-5.3-14.6z" fill="#0099d8"/></svg>