<svg xmlns="http://www.w3.org/2000/svg" width="398.161" height="26.499" xmlns:v="https://vecta.io/nano"><path d="M7.19 5.567H0V.652h19.945v4.915h-7.194v20.3H7.19zM22.316.652h5.556v25.217h-5.556zm9.754 0h8.406l5.806 16.455h.071L52.19.652h8.37v25.217h-5.552V6.529h-.071l-6.625 19.34h-4.238l-6.375-19.34h-.071v19.34h-5.557z" fill="#003057"/><path d="M95.971 16.134a12.16 12.16 0 0 1-.677 4.132 9.09 9.09 0 0 1-2.012 3.277 9.22 9.22 0 0 1-3.33 2.173 12.5 12.5 0 0 1-4.595.784 12.61 12.61 0 0 1-4.63-.784 9.22 9.22 0 0 1-3.33-2.173 9.09 9.09 0 0 1-2.012-3.277 12.16 12.16 0 0 1-.677-4.132V.641h5.556v15.28a6.14 6.14 0 0 0 .374 2.173 5.19 5.19 0 0 0 1.051 1.727 4.77 4.77 0 0 0 1.621 1.14 5.09 5.09 0 0 0 2.048.41c.698.008 1.39-.132 2.03-.41.606-.266 1.151-.654 1.6-1.14a5.19 5.19 0 0 0 1.051-1.727 6.14 6.14 0 0 0 .374-2.173V.641h5.556zm13.713-2.493c-.741-.954-1.893-1.496-3.1-1.46-.458.002-.91.112-1.318.321-.419.201-.673.637-.641 1.1-.004.423.261.802.659.944.539.234 1.099.413 1.674.534l2.173.5c.761.174 1.492.456 2.173.837a4.86 4.86 0 0 1 1.674 1.549 4.62 4.62 0 0 1 .659 2.618 4.85 4.85 0 0 1-.73 2.76 5.6 5.6 0 0 1-1.87 1.745 8.04 8.04 0 0 1-2.564.926c-.928.176-1.87.265-2.814.267a13.61 13.61 0 0 1-3.669-.516c-1.191-.318-2.273-.952-3.134-1.834l3.241-3.6c.45.577 1.014 1.056 1.656 1.407.656.332 1.384.498 2.119.481a4.95 4.95 0 0 0 1.674-.267c.448-.111.759-.518.748-.979.007-.441-.254-.842-.659-1.015-.533-.258-1.095-.449-1.674-.57l-2.173-.5c-.756-.172-1.486-.441-2.173-.8-.675-.355-1.25-.874-1.672-1.509a4.62 4.62 0 0 1-.659-2.618 5.28 5.28 0 0 1 .623-2.636c.403-.721.964-1.342 1.641-1.816a7.09 7.09 0 0 1 2.333-1.051 10.7 10.7 0 0 1 2.671-.338 12.53 12.53 0 0 1 3.455.5c1.13.312 2.152.928 2.956 1.781zm22.546 9.225c-.858 1.095-1.971 1.963-3.241 2.529a9.71 9.71 0 0 1-4.06.89 10.91 10.91 0 0 1-3.758-.641c-1.133-.402-2.174-1.025-3.063-1.834a8.61 8.61 0 0 1-2.048-2.867 9.07 9.07 0 0 1-.748-3.74 9.07 9.07 0 0 1 .748-3.74 8.61 8.61 0 0 1 2.048-2.867c.889-.809 1.93-1.432 3.063-1.834a10.91 10.91 0 0 1 3.758-.641 8.55 8.55 0 0 1 3.366.641 7.01 7.01 0 0 1 2.564 1.834c.725.839 1.276 1.813 1.621 2.867.394 1.207.587 2.47.57 3.74v1.677h-12.396a4.23 4.23 0 0 0 1.389 2.44 3.93 3.93 0 0 0 2.636.908c.784.026 1.557-.179 2.226-.588.617-.403 1.154-.916 1.585-1.514zm-4.523-7.622c.039-.862-.283-1.701-.89-2.315-.623-.644-1.49-.993-2.386-.962a4.01 4.01 0 0 0-1.567.285c-.426.174-.818.421-1.158.73a3.2 3.2 0 0 0-.748 1.033 3.4 3.4 0 0 0-.3 1.229zm8.049-6.7h5.342v2.778h.071c.472-.953 1.169-1.776 2.03-2.4a5.13 5.13 0 0 1 2.956-.8q.463 0 .926.036a4.59 4.59 0 0 1 .855.142v4.88a8.07 8.07 0 0 0-1.122-.267c-.383-.061-.77-.09-1.158-.089-.829-.036-1.656.109-2.422.427-.562.258-1.038.672-1.371 1.193-.337.559-.55 1.185-.623 1.834a17.86 17.86 0 0 0-.142 2.351v7.23h-5.343zM168.702.637h4.595l10.97 25.217h-6.269l-2.173-5.343h-9.795l-2.1 5.343h-6.128zm2.136 7.343l-3.063 7.836h6.162zm26.463 6.162c-.284-.4-.662-.724-1.1-.944-.472-.249-.998-.377-1.532-.374-1.176-.07-2.325.372-3.152 1.211a4.48 4.48 0 0 0-1.122 3.17 4.48 4.48 0 0 0 1.122 3.17c.827.839 1.976 1.281 3.152 1.211a2.88 2.88 0 0 0 1.532-.392 4.67 4.67 0 0 0 1.1-.926l3.526 3.7a6.81 6.81 0 0 1-2.938 1.8 11.04 11.04 0 0 1-3.223.516 10.91 10.91 0 0 1-3.758-.641c-1.132-.402-2.172-1.025-3.06-1.833a8.61 8.61 0 0 1-2.048-2.867 9.07 9.07 0 0 1-.748-3.74 9.07 9.07 0 0 1 .748-3.74 8.61 8.61 0 0 1 2.048-2.867c.889-.809 1.93-1.432 3.063-1.834a10.91 10.91 0 0 1 3.758-.641 11.04 11.04 0 0 1 3.223.516 6.81 6.81 0 0 1 2.938 1.8zm16.633 0c-.284-.4-.662-.724-1.1-.944-.472-.249-.998-.377-1.531-.374-1.176-.07-2.325.372-3.152 1.211a4.48 4.48 0 0 0-1.122 3.17 4.48 4.48 0 0 0 1.122 3.17c.827.839 1.976 1.281 3.152 1.211a2.88 2.88 0 0 0 1.531-.392 4.67 4.67 0 0 0 1.1-.926l3.526 3.7c-.809.842-1.821 1.462-2.938 1.8a11.04 11.04 0 0 1-3.223.516 10.91 10.91 0 0 1-3.758-.641c-1.133-.402-2.174-1.025-3.063-1.834a8.61 8.61 0 0 1-2.048-2.867 9.07 9.07 0 0 1-.748-3.74 9.07 9.07 0 0 1 .748-3.74 8.61 8.61 0 0 1 2.048-2.867c.889-.809 1.93-1.432 3.063-1.834a10.91 10.91 0 0 1 3.758-.641 11.04 11.04 0 0 1 3.223.516c1.117.338 2.129.958 2.938 1.8zm21.3 8.726c-.858 1.095-1.971 1.963-3.241 2.529a9.71 9.71 0 0 1-4.06.89 10.91 10.91 0 0 1-3.758-.641c-1.133-.402-2.174-1.025-3.063-1.834a8.61 8.61 0 0 1-2.048-2.867 9.07 9.07 0 0 1-.748-3.74 9.07 9.07 0 0 1 .748-3.74 8.61 8.61 0 0 1 2.048-2.867c.889-.809 1.93-1.432 3.063-1.834a10.91 10.91 0 0 1 3.758-.641 8.55 8.55 0 0 1 3.366.641 7.01 7.01 0 0 1 2.564 1.834c.725.839 1.276 1.813 1.621 2.867.394 1.207.587 2.47.57 3.74v1.675h-12.396a4.23 4.23 0 0 0 1.389 2.44 3.93 3.93 0 0 0 2.636.908c.784.026 1.557-.179 2.226-.588.617-.403 1.154-.916 1.585-1.514zm-4.523-7.622c.039-.862-.283-1.701-.89-2.315-.623-.644-1.49-.993-2.386-.962-.536-.011-1.069.086-1.567.285-.426.174-.818.421-1.158.73a3.2 3.2 0 0 0-.748 1.033 3.4 3.4 0 0 0-.3 1.229zm17.844-1.6c-.741-.954-1.893-1.496-3.1-1.46-.458.002-.91.112-1.318.321-.419.201-.673.637-.641 1.1-.004.423.261.802.659.944.539.234 1.099.413 1.674.534l2.173.5c.761.174 1.492.456 2.173.837a4.86 4.86 0 0 1 1.674 1.549 4.62 4.62 0 0 1 .659 2.618 4.85 4.85 0 0 1-.73 2.76 5.6 5.6 0 0 1-1.87 1.745 8.04 8.04 0 0 1-2.564.926c-.928.176-1.87.265-2.814.267a13.61 13.61 0 0 1-3.669-.516c-1.191-.318-2.273-.952-3.134-1.834l3.241-3.6c.45.577 1.014 1.056 1.656 1.407.656.332 1.384.498 2.119.481a4.95 4.95 0 0 0 1.674-.267c.448-.111.759-.518.748-.979.007-.441-.254-.842-.659-1.015-.533-.258-1.095-.449-1.674-.57l-2.173-.5c-.756-.172-1.486-.441-2.173-.8-.676-.356-1.252-.877-1.674-1.514a4.62 4.62 0 0 1-.659-2.618 5.28 5.28 0 0 1 .623-2.636c.402-.721.962-1.342 1.638-1.816a7.09 7.09 0 0 1 2.333-1.051 10.7 10.7 0 0 1 2.671-.338 12.53 12.53 0 0 1 3.455.5c1.13.312 2.152.928 2.956 1.781zm15.956 0c-.741-.954-1.893-1.496-3.1-1.46-.458.002-.91.112-1.318.321-.419.201-.673.637-.641 1.1-.004.423.261.802.659.944.539.234 1.099.413 1.674.534l2.173.5c.761.174 1.492.456 2.173.837a4.86 4.86 0 0 1 1.674 1.549 4.62 4.62 0 0 1 .659 2.618 4.85 4.85 0 0 1-.73 2.76 5.6 5.6 0 0 1-1.87 1.745 8.04 8.04 0 0 1-2.564.926c-.928.176-1.87.265-2.814.267a13.61 13.61 0 0 1-3.669-.516c-1.191-.318-2.273-.952-3.134-1.834l3.241-3.6c.45.577 1.014 1.056 1.656 1.407.656.332 1.384.498 2.119.481a4.95 4.95 0 0 0 1.674-.267c.448-.111.759-.518.748-.979.007-.441-.254-.842-.659-1.015-.533-.258-1.095-.449-1.674-.57l-2.173-.5c-.756-.172-1.486-.441-2.173-.8-.676-.356-1.252-.877-1.674-1.514a4.62 4.62 0 0 1-.659-2.618 5.28 5.28 0 0 1 .623-2.636c.402-.721.962-1.342 1.638-1.816a7.09 7.09 0 0 1 2.333-1.051 10.7 10.7 0 0 1 2.671-.338 12.53 12.53 0 0 1 3.455.5c1.13.312 2.152.928 2.956 1.781zm16.847-13h9.759a17.22 17.22 0 0 1 3.651.374 8.66 8.66 0 0 1 3.027 1.247 6.21 6.21 0 0 1 2.066 2.351 7.96 7.96 0 0 1 .766 3.686 7.4 7.4 0 0 1-1.389 4.541c-.994 1.288-2.45 2.137-4.06 2.369l6.411 10.649h-6.66l-5.273-10.083h-2.742v10.08h-5.556zm5.556 10.434h3.277q.748 0 1.585-.053c.518-.027 1.029-.136 1.514-.321a2.62 2.62 0 0 0 1.122-.837 2.55 2.55 0 0 0 .445-1.6 2.66 2.66 0 0 0-.392-1.532 2.61 2.61 0 0 0-1-.873c-.437-.212-.907-.351-1.389-.41a11.33 11.33 0 0 0-1.532-.107h-3.633zm32.7 11.789c-.858 1.095-1.971 1.963-3.241 2.529a9.71 9.71 0 0 1-4.06.89 10.91 10.91 0 0 1-3.758-.641c-1.133-.402-2.174-1.025-3.063-1.834a8.61 8.61 0 0 1-2.048-2.867 9.07 9.07 0 0 1-.748-3.74 9.07 9.07 0 0 1 .748-3.74 8.61 8.61 0 0 1 2.048-2.867c.889-.809 1.93-1.432 3.063-1.834a10.91 10.91 0 0 1 3.758-.641 8.55 8.55 0 0 1 3.366.641 7.01 7.01 0 0 1 2.564 1.834c.725.839 1.276 1.813 1.621 2.867.394 1.207.587 2.47.57 3.74v1.674h-12.4a4.23 4.23 0 0 0 1.389 2.44 3.93 3.93 0 0 0 2.636.908c.784.026 1.557-.179 2.226-.588.617-.403 1.154-.916 1.585-1.514zm-4.523-7.622c.039-.862-.283-1.701-.89-2.315-.623-.644-1.49-.993-2.386-.962a4.01 4.01 0 0 0-1.567.285c-.426.174-.818.421-1.158.73a3.2 3.2 0 0 0-.748 1.033 3.4 3.4 0 0 0-.3 1.229zm5.393-6.7h5.77l4.381 11.754h.071l4.06-11.754h5.378l-6.838 17.31h-5.663zm21.156 0h5.343v17.31h-5.343zm-.427-5.449c-.013-.824.316-1.617.908-2.19.573-.592 1.366-.921 2.19-.908.824-.013 1.617.316 2.19.908.592.573.921 1.366.908 2.19.013.824-.316 1.617-.908 2.19-.573.592-1.366.921-2.19.908-.824.013-1.617-.316-2.19-.908-.593-.572-.923-1.365-.912-2.189zm25.466 19.767c-.858 1.095-1.971 1.963-3.241 2.529a9.71 9.71 0 0 1-4.06.89 10.91 10.91 0 0 1-3.758-.641c-1.133-.402-2.174-1.025-3.063-1.834a8.61 8.61 0 0 1-2.048-2.867 9.07 9.07 0 0 1-.748-3.74 9.07 9.07 0 0 1 .748-3.74 8.61 8.61 0 0 1 2.048-2.867c.889-.809 1.93-1.432 3.063-1.834a10.91 10.91 0 0 1 3.758-.641 8.55 8.55 0 0 1 3.366.641 7.01 7.01 0 0 1 2.564 1.834c.725.839 1.276 1.813 1.621 2.867.394 1.207.587 2.47.57 3.74v1.678H355.1a4.23 4.23 0 0 0 1.389 2.44 3.93 3.93 0 0 0 2.636.908c.783.024 1.556-.181 2.223-.591.617-.403 1.154-.916 1.585-1.514zm-4.531-7.621c.039-.862-.283-1.701-.89-2.315-.623-.644-1.49-.993-2.386-.962a4.01 4.01 0 0 0-1.567.285 3.93 3.93 0 0 0-1.158.73 3.2 3.2 0 0 0-.748 1.033 3.4 3.4 0 0 0-.3 1.229zm5.984-6.7h5.7l3.526 10.863h.071l2.956-10.863h5.841l3.206 10.863h.071l3.245-10.859h5.414L392 25.858h-5.272l-3.6-11.5h-.071l-3.206 11.5h-5.378z" fill="#009e8c"/></svg>