<svg xmlns="http://www.w3.org/2000/svg" width="266.3" height="23.7" xmlns:v="https://vecta.io/nano"><path d="M19.1 14.3a10.3 10.3 0 0 1-.6 3.5c-.4 1-.9 2-1.7 2.8S15.1 22 14 22.4c-1.2.5-2.6.7-3.9.7s-2.7-.2-3.9-.7c-1.1-.4-2-1-2.8-1.8s-1.3-1.7-1.7-2.8a10.3 10.3 0 0 1-.6-3.5V1.2h4.7v12.9c0 .6.1 1.2.3 1.8.2.5.5 1 .9 1.5a5.02 5.02 0 0 0 1.4 1c.5.2 1.1.4 1.7.3.6 0 1.2-.1 1.7-.3s1-.6 1.4-1 .7-.9.9-1.5.3-1.2.3-1.8V1.2h4.7v13.1h0zm10-2.1c-.6-.8-1.6-1.3-2.6-1.2-.4 0-.8.1-1.1.3-.4.2-.6.5-.5.9 0 .4.2.7.6.8.5.2.9.3 1.4.4l1.8.4c.6.1 1.3.4 1.8.7.6.3 1 .8 1.4 1.3.4.7.6 1.4.6 2.2s-.2 1.6-.6 2.3a4.63 4.63 0 0 1-1.6 1.5c-.7.4-1.4.6-2.2.8l-2.4.2c-1 0-2.1-.1-3.1-.4s-1.9-.8-2.6-1.5l2.7-3c.4.5.9.9 1.4 1.2.6.3 1.2.4 1.8.4.5 0 1-.1 1.4-.2s.6-.4.6-.8-.2-.7-.6-.9-.9-.4-1.4-.5l-1.8-.4c-.6-.1-1.3-.4-1.8-.7-.6-.3-1.1-.7-1.4-1.3-.4-.7-.6-1.4-.6-2.2s.2-1.5.5-2.2c.3-.6.8-1.1 1.4-1.5s1.3-.7 2-.9a8.33 8.33 0 0 1 2.2-.3c1 0 2 .1 2.9.4a5.79 5.79 0 0 1 2.5 1.5l-2.7 2.7zM47.5 20c-.7.9-1.7 1.7-2.7 2.1-1.1.5-2.2.7-3.4.8-1.1 0-2.1-.2-3.2-.5-1-.3-1.8-.9-2.6-1.5-.7-.7-1.3-1.5-1.7-2.4-.4-1-.6-2.1-.6-3.2s.2-2.2.6-3.2c.4-.9 1-1.7 1.7-2.4s1.6-1.2 2.6-1.5c1-.4 2.1-.5 3.2-.5 1 0 1.9.2 2.8.5.8.3 1.6.9 2.2 1.5.6.7 1.1 1.5 1.4 2.4.3 1 .5 2.1.5 3.1v1.4H37.9c.1.8.6 1.5 1.2 2.1.6.5 1.4.8 2.2.8.7 0 1.3-.2 1.9-.5a4.04 4.04 0 0 0 1.3-1.3l3 2.3zm-3.8-6.5c0-.7-.2-1.4-.8-1.9-.5-.5-1.3-.8-2-.8-.5 0-.9.1-1.3.2s-.7.4-1 .6-.5.5-.6.9l-.3 1h6zm5.2-5.6h4.5v2.3h.1a5.51 5.51 0 0 1 1.7-2c.7-.5 1.6-.7 2.5-.7h.8c.2 0 .5.1.7.1v4.1c-.3-.1-.6-.2-.9-.2-.3-.1-.6-.1-1-.1-.7 0-1.4.1-2 .4-.5.2-.9.6-1.2 1-.3.5-.5 1-.5 1.5-.1.7-.1 1.3-.1 2v6.1H49l-.1-14.5zm26.7-6.7h3.9l9.2 21.2h-5.3l-1.8-4.5h-8.2l-1.8 4.5h-5.2l9.2-21.2zm1.8 6.2L74.8 14H80l-2.6-6.6zm21.7 5.2c-.2-.3-.6-.6-.9-.8-.4-.2-.8-.3-1.3-.3-1-.1-2 .3-2.7 1-.6.7-1 1.7-.9 2.7 0 1 .3 1.9.9 2.7.7.7 1.7 1.1 2.7 1 .5 0 .9-.1 1.3-.3.3-.2.7-.5.9-.8l3 3.1a5.79 5.79 0 0 1-2.5 1.5c-.9.3-1.8.4-2.7.4-1.1 0-2.1-.2-3.2-.5-1-.3-1.8-.9-2.6-1.5-.7-.7-1.3-1.5-1.7-2.4-.4-1-.6-2.1-.6-3.2s.2-2.2.6-3.2c.4-.9 1-1.7 1.7-2.4s1.6-1.2 2.6-1.5c1-.4 2.1-.5 3.2-.5.9 0 1.8.2 2.7.4.9.3 1.8.8 2.5 1.5l-3 3.1zm12.5 0c-.2-.3-.6-.6-.9-.8-.4-.2-.8-.3-1.3-.3-1-.1-2 .3-2.7 1-.6.7-1 1.7-.9 2.7 0 1 .3 1.9.9 2.7.7.7 1.7 1.1 2.7 1 .5 0 .9-.1 1.3-.3.3-.2.7-.5.9-.8l3 3.1a5.79 5.79 0 0 1-2.5 1.5c-.9.3-1.8.4-2.7.4-1.1 0-2.1-.2-3.2-.5-1-.3-1.8-.9-2.6-1.5-.7-.7-1.3-1.5-1.7-2.4-.4-1-.6-2.1-.6-3.2s.2-2.2.6-3.2c.4-.9 1-1.7 1.7-2.4s1.6-1.2 2.6-1.5c1-.4 2.1-.5 3.2-.5.9 0 1.8.2 2.7.4.9.3 1.8.8 2.5 1.5l-3 3.1zM128 20c-.7.9-1.7 1.7-2.7 2.1-1.1.5-2.2.7-3.4.8-1.1 0-2.1-.2-3.2-.5-1-.3-1.8-.9-2.6-1.5-.7-.7-1.3-1.5-1.7-2.4-.4-1-.6-2.1-.6-3.2s.2-2.2.6-3.2c.4-.9 1-1.7 1.7-2.4s1.6-1.2 2.6-1.5c1-.4 2.1-.5 3.2-.5 1 0 1.9.2 2.8.5.8.3 1.6.9 2.2 1.5.6.7 1.1 1.5 1.4 2.4.3 1 .5 2.1.5 3.2v1.4h-10.4c.1.8.6 1.5 1.2 2.1.6.5 1.4.8 2.2.8.7 0 1.3-.2 1.9-.5a4.04 4.04 0 0 0 1.3-1.3l3 2.2zm-3.8-6.5c0-.7-.2-1.4-.8-1.9-.5-.5-1.3-.8-2-.8-.5 0-.9.1-1.3.2s-.7.4-1 .6-.5.5-.6.9l-.3 1h6zm14.4-1.3c-.6-.8-1.6-1.3-2.6-1.2-.4 0-.8.1-1.1.3-.4.2-.6.5-.5.9 0 .4.2.7.6.8.5.2.9.3 1.4.4l1.8.4c.6.1 1.3.4 1.8.7.6.3 1 .8 1.4 1.3.4.7.6 1.4.6 2.2s-.2 1.6-.6 2.3a4.63 4.63 0 0 1-1.6 1.5c-.7.4-1.4.6-2.2.8l-2.4.2c-1 0-2.1-.1-3.1-.4s-1.9-.8-2.6-1.5l2.7-3c.4.5.9.9 1.4 1.2.6.3 1.2.4 1.8.4.5 0 1-.1 1.4-.2s.6-.4.6-.8-.2-.7-.6-.9-.9-.4-1.4-.5l-1.8-.4c-.6-.1-1.3-.4-1.8-.7-.6-.3-1.1-.7-1.4-1.3-.4-.7-.6-1.4-.6-2.2s.2-1.5.5-2.2c.3-.6.8-1.1 1.4-1.5s1.3-.7 2-.9a8.33 8.33 0 0 1 2.2-.3c1 0 2 .1 2.9.4a5.79 5.79 0 0 1 2.5 1.5l-2.7 2.7zm12.9 0c-.6-.8-1.6-1.3-2.6-1.2-.4 0-.8.1-1.1.3-.4.2-.6.5-.5.9 0 .4.2.7.6.8.5.2.9.3 1.4.4l1.8.4c.6.1 1.3.4 1.8.7.6.3 1 .8 1.4 1.3.4.7.6 1.4.6 2.2s-.2 1.6-.6 2.3a4.63 4.63 0 0 1-1.6 1.5c-.7.4-1.4.6-2.2.8l-2.4.2c-1 0-2.1-.1-3.1-.4s-1.9-.8-2.6-1.5l2.7-3c.4.5.9.9 1.4 1.2.6.3 1.2.4 1.8.4.5 0 1-.1 1.4-.2s.6-.4.6-.8-.2-.7-.6-.9-.9-.4-1.4-.5l-1.8-.4c-.6-.1-1.3-.4-1.8-.7-.6-.3-1.1-.7-1.4-1.3-.4-.7-.6-1.4-.6-2.2s.2-1.5.5-2.2c.3-.6.8-1.1 1.4-1.5s1.3-.7 2-.9a8.33 8.33 0 0 1 2.2-.3c1 0 2 .1 2.9.4a5.79 5.79 0 0 1 2.5 1.5l-2.7 2.7zm13.1-11h8.2a16.28 16.28 0 0 1 3.1.3c.9.2 1.8.5 2.5 1a5.51 5.51 0 0 1 1.7 2c.5 1 .7 2 .6 3.1 0 1.4-.4 2.7-1.2 3.8s-2.1 1.8-3.4 2l5.4 9h-5.6l-4.4-8.5h-2.3v8.5h-4.7l.1-21.2h0zm4.7 8.8h2.8 1.3a3.08 3.08 0 0 0 1.3-.3c.4-.1.7-.4.9-.7.3-.4.4-.9.4-1.4s-.1-.9-.3-1.3c-.2-.3-.5-.6-.8-.7-.4-.2-.8-.3-1.2-.3-.4-.1-.9-.1-1.3-.1h-3.1V10h0zm25 10c-.7.9-1.7 1.7-2.7 2.1-1.1.5-2.2.7-3.4.8-1.1 0-2.1-.2-3.2-.5-1-.3-1.8-.9-2.6-1.5-.7-.7-1.3-1.5-1.7-2.4-.4-1-.6-2.1-.6-3.2s.2-2.2.6-3.2c.4-.9 1-1.7 1.7-2.4s1.6-1.2 2.6-1.5c1-.4 2.1-.5 3.2-.5 1 0 1.9.2 2.8.5.8.3 1.6.9 2.2 1.5.6.7 1.1 1.5 1.4 2.4.3 1 .5 2.1.5 3.1v1.4h-10.4c.1.8.6 1.5 1.2 2.1.6.5 1.4.8 2.2.8.7 0 1.3-.2 1.9-.5a4.04 4.04 0 0 0 1.3-1.3l3 2.3zm-3.8-6.5c0-.7-.2-1.4-.8-1.9-.5-.5-1.3-.8-2-.8-.5 0-.9.1-1.3.2s-.7.4-1 .6-.5.5-.6.9l-.3 1h6zm3.7-5.6h4.9l3.7 9.9h.1l3.4-9.9h4.5L205 22.5h-4.8l-6-14.6zm17.3 0h4.5v14.6h-4.5V7.9zm-.4-4.6c0-.7.3-1.4.8-1.8.5-.5 1.2-.8 1.8-.8.7 0 1.4.3 1.8.8.5.5.8 1.2.8 1.8 0 .7-.3 1.4-.8 1.8-.5.5-1.2.8-1.8.8-.7 0-1.4-.3-1.8-.8-.5-.4-.8-1.1-.8-1.8h0zM232 20c-.7.9-1.7 1.7-2.7 2.1-1.1.5-2.2.7-3.4.8-1.1 0-2.1-.2-3.2-.5-1-.3-1.8-.9-2.6-1.5-.7-.7-1.3-1.5-1.7-2.4-.4-1-.6-2.1-.6-3.2s.2-2.2.6-3.2c.4-.9 1-1.7 1.7-2.4s1.6-1.2 2.6-1.5c1-.4 2.1-.5 3.2-.5 1 0 1.9.2 2.8.5.8.3 1.6.9 2.2 1.5.6.7 1.1 1.5 1.4 2.4.3 1 .5 2.1.5 3.1v1.4h-10.4c.1.8.6 1.5 1.2 2.1.6.5 1.4.8 2.2.8.7 0 1.3-.2 1.9-.5a4.04 4.04 0 0 0 1.3-1.3l3 2.3zm-3.8-6.5c0-.7-.2-1.4-.8-1.9-.5-.5-1.3-.8-2-.8-.5 0-.9.1-1.3.2s-.7.4-1 .6-.5.5-.6.9l-.3 1h6zm3.5-5.6h4.8l3 9.1h.1l2.5-9.1h4.9l2.7 9.1h.1l2.7-9.1h4.6l-5.2 14.6h-4.4l-3-9.7h-.1l-2.7 9.7H237l-5.3-14.6z" fill="#003057"/></svg>